<svg width="1056" height="215" viewBox="0 0 1056 215" fill="none" xmlns="http://www.w3.org/2000/svg">
<path opacity="0.2" d="M1047.8 214.463V106.659C1047.8 106.659 1002.28 21.1028 867.583 21.1028C684.473 21.1028 484.059 51.5508 352.801 117.813V214.523H1047.8V214.463Z" fill="#0B4F8E"/>
<path d="M1009.82 61.0771H1013.79V214.463H1009.82V61.0771Z" fill="white"/>
<path d="M962.847 27.7349H966.826V214.463H962.847V27.7349Z" fill="white"/>
<path d="M915.879 15.616H919.858V214.463H915.879V15.616Z" fill="white"/>
<path d="M868.91 15.616H872.89V214.463H868.91V15.616Z" fill="white"/>
<path d="M821.942 15.616H825.921V214.463H821.942V15.616Z" fill="white"/>
<path d="M774.974 15.616H778.953V214.463H774.974V15.616Z" fill="white"/>
<path d="M728.005 15.616H731.985V214.463H728.005V15.616Z" fill="white"/>
<path d="M681.037 15.616H685.016V214.463H681.037V15.616Z" fill="white"/>
<path d="M634.068 30.8101H638.047V214.463H634.068V30.8101Z" fill="white"/>
<path d="M587.1 36.5979H591.08V214.463H587.1V36.5979Z" fill="white"/>
<path d="M540.132 45.22H544.112V214.463H540.132V45.22Z" fill="white"/>
<path d="M493.163 61.0771H497.143V214.463H493.163V61.0771Z" fill="white"/>
<path d="M446.136 70.9648H450.115V214.462H446.136V70.9648Z" fill="white"/>
<path d="M399.167 85.978H403.146V214.523H399.167V85.978Z" fill="white"/>
<path d="M345.808 108.829V214.523H352.802V117.813C484.06 51.6109 684.414 21.1026 867.584 21.1026C1002.28 21.1026 1047.8 106.658 1047.8 106.658V214.463H1056V96.6498C1056 96.6498 1009.45 0 871.744 0C684.534 0 479.417 36.417 345.808 108.829Z" fill="white"/>
<path d="M917.868 37.2615H729.995V84.893H917.868V37.2615Z" fill="white"/>
<path d="M758.514 48.0542L768.04 74.0405H763.458L760.624 66.4436H751.278C750.856 67.7097 750.374 68.9759 749.892 70.242C749.409 71.5082 748.927 72.7744 748.505 74.0405H743.923L753.449 48.0542H758.514ZM755.981 53.5409L752.665 62.7657H759.237L755.981 53.5409Z" fill="#868FA4"/>
<path d="M777.385 48.0542V74.0405H772.923V48.0542H777.385Z" fill="#868FA4"/>
<path d="M803.432 55.7114C803.432 56.857 803.13 57.882 802.528 58.907C801.925 59.9319 801.02 60.776 799.814 61.4996C800.417 61.6804 800.9 61.9819 801.322 62.3436C801.744 62.7054 802.045 63.1275 802.347 63.6098C802.588 64.0922 802.769 64.5745 802.889 65.1171C803.01 65.6598 803.07 66.2024 803.07 66.6847V70.4229C803.07 70.9053 803.191 71.4479 803.432 72.1111C803.673 72.7743 803.975 73.3773 804.397 74.0405H799.573C799.392 73.739 799.211 73.4376 799.091 73.1361C798.97 72.8346 798.91 72.4729 798.85 72.1714C798.789 71.87 798.729 71.5685 798.729 71.267C798.729 70.9656 798.729 70.7244 798.729 70.5435V66.5641C798.729 66.2024 798.669 65.7804 798.548 65.4186C798.428 65.0568 798.186 64.6951 797.945 64.3936C797.644 64.0921 797.282 63.851 796.8 63.6701C796.317 63.4892 795.775 63.3686 795.112 63.3686H788.479V74.0405H784.078V48.0542H795.112C796.438 48.0542 797.644 48.2954 798.669 48.7174C799.694 49.1395 800.598 49.7424 801.322 50.4659C802.045 51.1894 802.588 52.0335 802.95 52.9379C803.251 53.8423 803.432 54.7467 803.432 55.7114ZM788.359 59.6908H794.991C795.534 59.6908 796.016 59.5702 796.498 59.3893C796.981 59.2084 797.403 58.907 797.764 58.6055C798.126 58.2437 798.428 57.8217 798.609 57.3393C798.789 56.857 798.91 56.3143 798.91 55.7114C798.91 55.1688 798.789 54.6261 798.609 54.1438C798.428 53.6614 798.126 53.2394 797.764 52.8776C797.403 52.5159 796.981 52.2747 796.498 52.0335C796.016 51.8526 795.473 51.7321 794.931 51.7321H788.298V59.6908H788.359Z" fill="#868FA4"/>
<path d="M809.762 48.0542H820.012C821.338 48.0542 822.544 48.2954 823.569 48.7174C824.594 49.1998 825.499 49.8027 826.162 50.5262C826.885 51.2497 827.428 52.0938 827.79 52.9982C828.152 53.9026 828.333 54.8673 828.333 55.7717C828.333 56.7364 828.152 57.7011 827.79 58.6658C827.428 59.6305 826.885 60.4143 826.162 61.1378C825.438 61.8613 824.594 62.4642 823.569 62.8863C822.544 63.3083 821.338 63.5495 820.012 63.5495H814.164V74.0405H809.762V48.0542ZM814.164 59.8716H819.108C820.012 59.8716 820.796 59.751 821.399 59.5702C822.002 59.329 822.484 59.0878 822.906 58.726C823.268 58.3643 823.569 57.9423 823.75 57.3996C823.931 56.9173 823.991 56.3746 823.991 55.7717C823.991 55.1688 823.871 54.6261 823.69 54.1438C823.509 53.6614 823.147 53.2394 822.786 52.8776C822.363 52.5159 821.881 52.2747 821.278 52.0335C820.675 51.8526 819.952 51.7321 819.168 51.7321H814.224V59.8716H814.164Z" fill="#868FA4"/>
<path d="M856.067 61.0171C856.067 63.0068 855.826 64.8758 855.283 66.5641C854.741 68.2523 853.957 69.6993 852.932 70.9052C851.907 72.111 850.641 73.0757 849.134 73.7389C847.626 74.4022 845.938 74.7639 844.009 74.7639C842.079 74.7639 840.391 74.4022 838.884 73.7389C837.376 73.0757 836.11 72.111 835.146 70.9052C834.121 69.6993 833.337 68.2523 832.854 66.5641C832.312 64.8758 832.071 63.0068 832.071 61.0171C832.071 59.0274 832.312 57.1584 832.854 55.4701C833.397 53.7819 834.181 52.3952 835.146 51.1893C836.171 49.9835 837.437 49.0791 838.884 48.4158C840.391 47.7526 842.079 47.4512 844.009 47.4512C845.938 47.4512 847.626 47.7526 849.134 48.4158C850.641 49.0791 851.907 49.9835 852.932 51.1893C853.957 52.3952 854.741 53.8422 855.283 55.4701C855.766 57.1584 856.067 58.9672 856.067 61.0171ZM851.606 60.9568C851.606 59.3892 851.425 58.0024 851.003 56.7363C850.641 55.5304 850.098 54.5055 849.375 53.6614C848.711 52.8172 847.867 52.154 846.963 51.732C846.059 51.3099 845.034 51.0688 843.948 51.0688C842.863 51.0688 841.838 51.3099 840.934 51.732C840.029 52.154 839.185 52.8172 838.522 53.6614C837.859 54.5055 837.316 55.5304 836.894 56.7363C836.532 57.9421 836.291 59.3892 836.291 60.9568C836.291 62.5244 836.472 63.9112 836.894 65.1773C837.256 66.4435 837.798 67.4685 838.522 68.3126C839.185 69.1567 840.029 69.8199 840.934 70.3022C841.838 70.7846 842.863 70.9655 843.948 70.9655C845.034 70.9655 845.998 70.7243 846.963 70.3022C847.867 69.8199 848.711 69.217 849.375 68.3126C850.038 67.4685 850.581 66.3832 851.003 65.1773C851.425 63.9715 851.606 62.5244 851.606 60.9568Z" fill="#868FA4"/>
<path d="M880.607 55.7114C880.607 56.857 880.305 57.882 879.702 58.907C879.099 59.9319 878.195 60.776 876.989 61.4996C877.592 61.6804 878.074 61.9819 878.496 62.3436C878.918 62.7054 879.22 63.1275 879.521 63.6098C879.762 64.0922 879.943 64.5745 880.064 65.1171C880.184 65.6598 880.245 66.2024 880.245 66.6847V70.4229C880.245 70.9053 880.365 71.4479 880.607 72.1111C880.848 72.7743 881.149 73.3773 881.571 74.0405H876.748C876.567 73.739 876.386 73.4376 876.265 73.1361C876.145 72.8346 876.085 72.4729 876.024 72.1714C875.964 71.87 875.904 71.5685 875.904 71.267C875.904 70.9656 875.904 70.7244 875.904 70.5435V66.5641C875.904 66.2024 875.843 65.7804 875.723 65.4186C875.602 65.0568 875.361 64.6951 875.12 64.3936C874.818 64.0921 874.457 63.851 873.974 63.6701C873.492 63.4892 872.949 63.3686 872.286 63.3686H865.654V74.0405H861.252V48.0542H872.286C873.613 48.0542 874.818 48.2954 875.843 48.7174C876.868 49.1395 877.773 49.7424 878.496 50.4659C879.22 51.1894 879.762 52.0335 880.124 52.9379C880.426 53.8423 880.607 54.7467 880.607 55.7114ZM865.594 59.6908H872.226C872.768 59.6908 873.251 59.5702 873.733 59.3893C874.215 59.2084 874.637 58.907 874.999 58.6055C875.361 58.2437 875.662 57.8217 875.843 57.3393C876.024 56.857 876.145 56.3143 876.145 55.7114C876.145 55.1688 876.024 54.6261 875.843 54.1438C875.662 53.6614 875.361 53.2394 874.999 52.8776C874.637 52.5159 874.215 52.2747 873.733 52.0335C873.251 51.8526 872.708 51.7321 872.165 51.7321H865.533V59.6908H865.594Z" fill="#868FA4"/>
<path d="M906.111 48.0542V51.7923H897.911V74.1008H893.449V51.7923H885.249V48.0542H906.111Z" fill="#868FA4"/>
<g opacity="0.1">
<path opacity="0.1" d="M352.801 117.813V127.038C589.572 32.7394 755.921 43.2907 826.524 41.6024C941.382 38.8893 987.989 63.9712 1047.8 112.206V106.598C1047.8 106.598 1002.28 21.0425 867.583 21.0425C684.473 21.1028 484.059 51.6111 352.801 117.813Z" fill="black"/>
</g>
<path d="M784.138 213.317V146.151C784.138 146.151 761.046 92.8516 693.759 92.8516C602.174 92.8516 500.519 111.844 436.066 153.084V213.317H784.138Z" fill="#8BA7C8"/>
<path d="M764.181 117.753H766.171V213.317H764.181V117.753Z" fill="white"/>
<path d="M717.212 89.4751H719.202V213.317H717.212V89.4751Z" fill="white"/>
<path d="M670.244 89.4751H672.234V213.317H670.244V89.4751Z" fill="white"/>
<path d="M623.276 89.4751H625.266V213.317H623.276V89.4751Z" fill="white"/>
<path d="M576.308 98.8809H578.297V213.317H576.308V98.8809Z" fill="white"/>
<path d="M529.339 107.865H531.329V213.317H529.339V107.865Z" fill="white"/>
<path d="M482.371 123.903H484.361V213.317H482.371V123.903Z" fill="white"/>
<path d="M432.508 147.477V213.317H436.005V153.084C500.459 111.844 602.113 92.8516 693.698 92.8516C761.046 92.8516 784.077 146.151 784.077 146.151V213.317H787.574V139.88C787.574 139.88 764.301 79.7078 695.447 79.7078C601.872 79.7078 499.313 102.378 432.508 147.477Z" fill="white"/>
<g opacity="0.1">
<path opacity="0.1" d="M436.066 153.084V158.812C554.421 100.087 637.867 106.659 673.199 105.634C730.598 103.945 753.63 119.561 784.138 149.648V146.151C784.138 146.151 761.046 92.8516 693.759 92.8516C602.174 92.8516 500.519 111.844 436.066 153.084Z" fill="black"/>
</g>
<path d="M732.675 154.657L472.812 154.657V145.251L732.675 145.251V154.657Z" fill="white"/>
<path opacity="0.1" d="M529.369 213.296H484.39V154.63H529.369V213.296Z" fill="black"/>
<path opacity="0.1" d="M576.342 213.296H531.364V154.63H576.342V213.296Z" fill="black"/>
<path opacity="0.21" d="M623.315 213.296H578.336V154.63H623.315V213.296Z" fill="black"/>
<path opacity="0.1" d="M670.288 213.296H625.31V154.63H670.288V213.296Z" fill="black"/>
<path opacity="0.1" d="M717.201 213.296H672.223V154.63H717.201V213.296Z" fill="black"/>
<path opacity="0.1" d="M472.784 154.712L464.283 160.561H724.086L732.648 154.471L472.784 154.712Z" fill="black"/>
<path d="M0.000183105 150.807H368.9V161.549H0.000183105V150.807Z" fill="#F2F7FC"/>
<path d="M300.039 161.605H306.653V214.467H300.039V161.605Z" fill="#F2F7FC"/>
<path d="M227.955 161.605H234.57V214.466H227.955V161.605Z" fill="#F2F7FC"/>
<path d="M155.815 161.605H162.429V214.466H155.815V161.605Z" fill="#F2F7FC"/>
<path d="M83.6743 161.605H90.2891V214.466H83.6743V161.605Z" fill="#F2F7FC"/>
<path d="M11.5898 161.605H18.2046V214.466H11.5898V161.605Z" fill="#F2F7FC"/>
</svg>
