<svg width="1250" height="407" viewBox="0 0 1250 407" fill="none" xmlns="http://www.w3.org/2000/svg">
<path opacity="0.15" d="M131.905 0.556605H175.738V1.53068L176.434 0V26.8566V118.837H209.83V117.306V114.662V110.001V103.6V100.956V96.2942V89.8931V87.2492V82.5875V76.1865V73.5426V68.881V62.4799V59.836V54.1307H209.691L275.024 24.6997L294.992 54.1307H294.714V60.0447V62.6886V69.0897V73.7513V76.3952V82.7963V87.4579V90.1018V96.5029V101.165V103.808V110.209V114.871V117.515V123.916V128.578V131.222V137.623V142.284V144.928V151.329V155.991V158.635V165.036V169.698V172.342V178.743V178.882V182.221V184.726V187.37V193.771V198.433V201.077V207.478V212.139V214.783V216.036H330.894L331.172 215.897L357.333 241.222V325.48H366.378V322.001H368.465C369.579 314.348 380.293 307.947 393.304 307.947C394.696 307.947 396.157 308.155 397.479 308.294C397.479 308.364 397.409 308.364 397.409 308.434H397.34C400.54 308.781 404.019 309.477 406.106 310.521V309.825V304.816V302.728V299.041V294.031V291.944V288.256V283.247V281.159V276.776H427.397H440.129V209.983L458.219 187.231V187.022H486.746V213.601V217.427V222.924V226.75V232.247V236.074V241.57V245.397V250.894V254.72V260.217V264.044V269.401V269.54V273.367V278.863V280.533H506.923V278.376V276.567V275.941V274.132V271.558V269.749V265.574V263.557V262.93V261.121V258.547V255.694V252.633V250.198V245.884V239.901V237.465V233.152V227.168V224.733V219.027H512.489V213.044L525.778 202.677L526.057 202.816L525.848 202.607L539.624 202.747V198.85V194.676V187.718V183.543V175.89V171.715H539.694L552.844 143.189H593.546L593.964 143.328V143.467V214.088V214.157V267.035L596.747 269.888V280.255H603.704V167.541H646.424H669.246H671.82V232.943H680.169V226.611V222.924V216.662V212.974V206.712V203.025V196.763V193.075V186.813V183.126V176.864V173.176V166.915V163.227V156.965V153.277V147.016V143.328V137.066V133.448V133.379L688.031 91.7021H701.738H705.912H734.439V91.6325L734.508 91.7021H735.065L735.135 91.5629V91.7021V109.096V140.684V200.938H756.703V199.824V198.085V195.024V190.849V189.11V186.048V181.874V180.134V177.073V172.898V171.159V168.097V163.923V162.183V158.496H756.773L799.563 139.223L812.643 158.496H812.365V162.322V164.062V168.236V171.298V173.037V176.725L819.949 180.134H820.018V183.961V185.7V189.875V192.936V194.676V198.85V201.912V203.651V207.826V210.887V212.626V216.801V219.862V221.602V222.715H841.587V162.462V130.665V113.271V113.132L841.657 113.271H842.213L842.283 113.201V113.271H870.809H874.984H888.691L896.553 154.947V155.017V158.704V164.966V168.654V174.916V178.603V184.865V188.553V194.815V198.502V204.764V208.452V214.714V218.401V224.663V228.351V234.613V238.3V244.562V248.25V254.581H904.902V189.179H907.546H930.367H973.087V301.893H980.045V291.526L982.828 288.674V235.795V235.726V165.036V164.897L983.245 164.758H1023.88L1037.03 193.284H1037.1V197.459V205.112V209.287V216.244V220.419V224.315L1050.87 224.176L1050.67 224.385L1050.94 224.246L1064.23 234.613V240.596H1069.8V246.232V248.667V254.651V258.965V261.4V267.383V271.697V274.132V277.194V280.046V282.621V284.43V285.056V286.865V291.039V292.848V295.423V297.232V297.858V299.667V301.824H1089.98V300.154V294.657V290.831V290.691V285.334V281.507V276.08V272.254V266.757V262.93V257.434V253.607V248.25V244.423V238.926V235.1V208.591H1118.5V208.8L1136.59 231.551V298.345H1149.39H1170.68V302.728V304.816V309.825V313.513V315.6V320.609V324.297V326.384V331.394V332.09C1172.77 331.046 1176.25 330.35 1179.45 330.002H1179.38C1179.38 329.933 1179.31 329.933 1179.31 329.863C1180.63 329.724 1182.1 329.515 1183.49 329.515C1196.5 329.515 1207.21 335.916 1208.33 343.57H1210.41V347.049H1240.96V350.527H1238.87V352.615H1248.61H1249.31V358.181H1248.61H1245.13V393.665H1244.44H1170.68V396.031V398.535H1149.39H1111.54H1089.98V396.448H1088.38H1085.38H1079.05H1076.06H1069.8H1069.73H1035.85H1012.05V396.1L991.873 395.961V396.448H987.977H981.645H978.653H973.087H939.69V397.144H896.553V397.353V406.885H842.283H841.587V406.189H840.543H837.552H831.22H828.228H821.897H806.103V406.885H802.485H795.458H792.118H785.091H781.751H774.724H771.384H764.357H759.695V406.815L723.515 406.606V385.316H680.378V375.784V375.575H637.24V374.879H603.843H598.277H595.286H588.954H585.058V374.392L564.88 374.531V374.879H541.085H507.201H507.132H500.87H497.878H491.547H488.555H486.955V376.967H465.386H427.536H406.246V374.462V372.096H357.542V400.205L302.576 400.484V400.553H295.132H284.347H279.198H268.414H263.265H252.481H247.332H236.548H230.773V399.162H206.769H197.168H192.575H182.974H178.382H176.573V400.553H175.877H93.0807V385.942H26.9829V384.551H-24.0168H-32.5748H-37.1669H-46.7684H-52.3346V383.855L-83.6442 384.063V384.551H-119.824H-171.589H-171.659H-181.191H-185.783H-195.384H-199.976H-202.481V388.029H-235.321H-293.07H-325.632V383.924V380.445H-438.277H-439.042V326.176H-444.608H-446V317.826H-444.608H-429.997V314.348H-432.78V309.477H-386.164V303.911H-383.033C-381.293 292.083 -364.943 282.481 -345.044 282.481C-342.887 282.481 -340.73 282.76 -338.712 282.969C-338.782 283.038 -338.782 283.108 -338.852 283.177H-338.991C-334.12 283.664 -329.111 284.777 -325.632 286.378V285.265V277.542V274.411V268.844V261.121V257.99V252.424V244.701V241.57V235.03H-293.07H-273.728V132.822L-245.897 98.1032V97.964H-202.759V138.318V144.093V152.443V158.217V166.567V172.342V180.691V186.466V194.815V200.59V208.939V214.714V222.924V223.063V228.838V237.187V239.483H-172.146V236.491V233.778V232.804V230.09V226.194V223.48V217.079V214.366V213.392V210.678V206.782V202.399V197.667V193.91V187.301V178.186V174.429V167.819V158.704V154.947V146.668H-163.101V137.484L-142.923 121.69L-142.506 121.968L-142.993 121.62L-122.05 121.829V115.845V109.444V98.7989V92.3979V80.709V74.3079H-121.842L-101.734 31.1704H-39.6021L-39.2542 31.1008V31.3095V139.153V139.223V220.002L-35.0796 224.385V239.901H-23.9473V68.046H41.1069H76.0344H79.7916V168.236H93.0112V158.217V152.651V143.05V137.484V127.882V122.316V112.714V107.148V97.5466V91.9804V82.3788V76.8127V67.2111V61.645V52.0434V46.4772V36.7365V31.1704V21.5688V16.0026L92.9417 16.1418L104.77 0.556605H125.643" fill="#94B1F4"/>
</svg>
