<svg width="646" height="350" viewBox="0 0 646 350" fill="none" xmlns="http://www.w3.org/2000/svg">
<path d="M86.1411 345.536H75.5067C75.2113 345.536 74.9897 345.315 74.9897 345.019V233.904H86.658V345.019C86.6211 345.315 86.3995 345.536 86.1411 345.536Z" fill="#868FA4"/>
<path d="M185.838 345.536H175.204C174.909 345.536 174.687 345.315 174.687 345.019V233.904H186.355V345.019C186.355 345.315 186.134 345.536 185.838 345.536Z" fill="#868FA4"/>
<path d="M185.358 271.348H75.8754C75.3215 271.348 74.8784 270.905 74.8784 270.351V202.146C74.8784 201.592 75.3215 201.149 75.8754 201.149H182.256C184.545 201.149 186.392 202.995 186.392 205.285V270.351C186.355 270.905 185.912 271.348 185.358 271.348Z" fill="#F0B77C"/>
<path d="M85.2185 157.168H2.02669C1.25127 157.168 0.623535 157.796 0.623535 158.571V221.238H86.6216V158.608C86.6216 157.796 85.9939 157.168 85.2185 157.168Z" fill="#FFE7C7"/>
<path d="M104.382 157.168H21.1903C20.4148 157.168 19.7871 157.796 19.7871 158.571V221.238H105.785V158.608C105.785 157.796 105.158 157.168 104.382 157.168Z" fill="#F0B77C"/>
<path d="M163.573 263.15H23.4056C23.0732 263.15 22.7778 262.855 22.7778 262.523V219.871C22.7778 219.539 23.0732 219.243 23.4056 219.243H161.616C163.056 219.243 164.2 220.388 164.2 221.828V262.56C164.2 262.892 163.905 263.15 163.573 263.15Z" fill="#FFBC68"/>
<path d="M11.7748 345.536H1.14048C0.845082 345.536 0.623535 345.315 0.623535 345.019V233.904H12.2918V345.019C12.2918 345.315 12.0333 345.536 11.7748 345.536Z" fill="#868FA4"/>
<path d="M111.509 345.536H100.874C100.579 345.536 100.357 345.315 100.357 345.019V233.904H111.989V345.019C111.989 345.315 111.767 345.536 111.509 345.536Z" fill="#B5C0D9"/>
<path d="M108.998 39.1838C112.69 46.0524 112.764 54.7673 109.145 61.6728C105.416 68.7999 98.1048 74.1544 96.8125 82.0938C95.6309 89.0732 109.219 90.9934 105.896 97.2711C93.5261 120.794 17.0546 105.801 36.6249 88.63C48.8839 77.8841 25.4735 58.9402 47.6654 39.2577C54.0903 33.5708 58.4844 25.4098 66.4602 22.234C70.3373 20.683 74.6944 20.3138 78.7562 21.2C82.8918 22.0863 85.5873 24.9667 89.3906 26.3699C97.514 29.2503 104.493 30.8751 108.998 39.1838Z" fill="#201212"/>
<path d="M89.4647 54.6565C92.0863 53.5486 94.6342 52.2562 96.9974 50.6683C96.5912 50.9268 100.025 55.0627 100.394 55.395C101.798 56.7983 103.496 58.0908 105.342 58.8662C107.853 59.9371 108.813 56.9091 109.035 54.8411C109.589 49.7082 107.632 44.169 105.97 39.4053C104.825 36.1926 101.133 36.8204 99.6559 33.7185L60.8848 31.7982C60.8848 31.7982 63.0634 68.0243 63.2111 67.5812C64.5034 63.6299 77.501 58.3123 78.978 57.943C82.5597 57.1306 86.0676 56.0597 89.4647 54.6565Z" fill="#201212"/>
<path d="M95.8894 105.358C95.8156 111.488 90.3876 116.4 83.815 116.326C77.2054 116.252 71.9621 111.193 72.0359 105.026C72.1098 98.8958 77.5377 93.9845 84.1104 94.0583C90.683 94.1691 95.9633 99.2282 95.8894 105.358Z" fill="#0D1E41"/>
<path d="M176.054 288.778C174.282 259.494 172.029 228.549 169.998 224.081C166.047 215.329 90.0188 193.246 90.0188 193.246L49.9922 189.11C49.9922 189.11 141.086 212.596 145.702 232.796C147.474 240.514 147.474 240.329 147.179 261.895C147.068 268.911 149.542 279.915 152.939 291.622C155.413 300.078 158.33 308.904 161.099 316.843C166.638 316.031 172.066 314.554 177.42 312.744C177.014 305.322 176.571 297.124 176.054 288.778Z" fill="#2E4885"/>
<path d="M161.099 316.843C166.306 331.651 170.995 343.283 170.995 343.283L178.934 343.394C178.934 343.394 178.343 330.285 177.42 312.744C172.066 314.554 166.638 316.068 161.099 316.843Z" fill="#FFB896"/>
<path d="M122.476 320.093C124.211 332.981 125.762 342.656 125.762 342.656L133.036 342.767C133.036 342.767 134.772 333.424 137.172 320.019C132.261 320.388 127.35 320.241 122.476 320.093Z" fill="#FFB896"/>
<path d="M150.317 227.515C147.732 218.283 81.932 192.323 81.932 192.323L49.9919 189.11C49.9919 189.11 42.1269 194.428 37.4005 210.048C28.7232 238.667 124.174 234.31 123.842 239.775C123.546 245.24 119.965 242.803 117.823 261.082C117.048 267.655 117.86 279.989 119.189 293.099C120.112 302.257 121.331 311.821 122.439 320.056C127.35 320.204 132.261 320.388 137.135 319.982C138.612 311.747 140.347 301.961 142.046 291.88C146.92 263.298 151.646 232.316 150.317 227.515Z" fill="#365DAB"/>
<path d="M88.0246 95.9045C88.0246 95.9045 96.0373 99.5235 104.013 121.717C111.989 143.911 110.844 144.206 115.755 148.12C120.666 152.035 142.673 158.349 142.673 158.349L140.827 167.507C140.827 167.507 115.94 166.178 106.339 159.162C96.7389 152.182 82.3751 112.633 81.7104 106.134C81.0458 99.6342 81.8212 92.5072 88.0246 95.9045Z" fill="#FFA379"/>
<path d="M134.366 161.34C133.664 164.701 137.837 168.431 143.671 169.612C149.505 170.794 154.785 169.021 155.45 165.624C156.151 162.264 151.979 158.534 146.145 157.352C140.311 156.208 135.03 157.98 134.366 161.34Z" fill="#FFA379"/>
<path d="M106.931 119.095L87.9142 125.631C87.9142 125.631 73.7719 101.333 84.554 94.0952C95.89 93.0982 106.931 119.095 106.931 119.095Z" fill="url(#paint0_linear_90_24779)"/>
<path d="M68.159 88.7406C88.9108 87.7805 101.281 100.853 101.687 122.751C101.502 135.122 93.3787 137.855 93.3787 137.855L89.9817 193.246C89.9817 193.246 82.3382 195.277 71.63 195.129C60.9217 194.982 49.9181 189.11 49.9181 189.11C49.9181 189.11 54.0168 179.657 54.903 168.948C55.7523 158.239 49.4381 132.463 47.8503 125.078C46.3733 117.692 40.0961 88.5929 68.159 88.7406Z" fill="url(#paint1_linear_90_24779)"/>
<path d="M66.2021 68.9844L62.7681 89.147C62.7681 89.147 80.3812 113.002 83.3722 115.735C84.8122 104.177 82.966 93.3937 82.486 90.7349C82.0059 88.0761 82.5229 62.3744 82.5229 62.3744L66.2021 68.9844Z" fill="#FFBD96"/>
<path opacity="0.4" d="M65.0938 75.5207L66.2015 68.9845L72.9957 66.2518L80.0115 69.3168L82.3008 71.8279L82.4116 72.4926C82.3747 75.5576 82.3377 78.8811 82.3377 81.8723C78.4975 81.7615 70.5956 80.8752 65.0938 75.5207Z" fill="black"/>
<path d="M76.4667 79.6566L80.4915 80.2105C88.7627 81.3553 96.4062 75.5577 97.5509 67.2858L101.871 36.0819L65.7954 31.0967L61.7706 60.2696C60.4782 69.6861 67.0508 78.3642 76.4667 79.6566Z" fill="#FFBD96"/>
<path d="M82.5898 71.5989C82.6015 72.0312 84.4144 73.0097 86.6012 72.9505C88.7881 72.8913 90.5411 71.6541 90.5264 71.1137C90.5162 70.7354 88.7882 71.5397 86.6014 71.5989C84.4131 71.604 82.5766 71.1125 82.5898 71.5989Z" fill="white"/>
<path d="M87.3839 66.3146L87.2915 65.9446C87.7996 65.8521 88.0305 65.8059 88.5386 65.6672C89.4161 65.4822 89.8318 64.881 89.7395 64.0949C89.6471 63.3088 89.4623 62.4302 89.2776 61.5053C88.9543 59.9331 88.6309 58.2683 88.6309 56.9273C88.6309 55.8174 89.6933 54.6614 91.4022 54.0602C93.5731 53.2741 96.2981 53.9215 97.5452 54.7076L97.3605 55.0313C96.1596 54.3377 93.6192 53.6903 91.587 54.4302C89.878 55.0776 89.0928 56.1411 89.0928 56.9273C89.0928 58.2221 89.4161 59.8868 89.6933 61.4591C89.878 62.3839 90.0628 63.2625 90.1552 64.0949C90.2937 65.1122 89.6933 65.8521 88.6309 66.1296C88.1229 66.1758 87.8919 66.2221 87.3839 66.3146Z" fill="#230706"/>
<path d="M74.2666 55.3551L74.0356 54.9389C75.6522 54.0603 78.4697 53.5516 79.532 53.5516C82.2109 53.5516 84.0122 54.6152 84.4741 54.9389L84.2432 55.3089C83.7813 54.9852 82.0723 54.0141 79.532 54.0141C78.6082 54.0603 75.7908 54.5227 74.2666 55.3551Z" fill="#230706"/>
<path d="M81.1957 57.9906C81.1957 58.6843 80.78 59.2392 80.2719 59.2392C79.7638 59.2392 79.3481 58.6843 79.3481 57.9906C79.3481 57.297 79.7638 56.7421 80.2719 56.7421C80.78 56.7421 81.1957 57.297 81.1957 57.9906Z" fill="#230706"/>
<path d="M79.9476 57.1586C80.1324 57.3898 80.1786 57.7135 80.04 57.806C79.9014 57.9448 79.6243 57.806 79.4395 57.5748C79.2548 57.3436 79.2086 57.0199 79.3472 56.9274C79.4395 56.7887 79.7167 56.9274 79.9476 57.1586Z" fill="white"/>
<path d="M94.4051 57.9906C94.4051 58.6843 93.9894 59.2392 93.4814 59.2392C92.9733 59.2392 92.5576 58.6843 92.5576 57.9906C92.5576 57.297 92.9733 56.7421 93.4814 56.7421C93.9894 56.7421 94.4051 57.297 94.4051 57.9906Z" fill="#230706"/>
<path d="M93.1571 57.1586C93.3418 57.3898 93.388 57.7135 93.2495 57.806C93.1109 57.9448 92.8338 57.806 92.649 57.5748C92.4643 57.3436 92.4181 57.0199 92.5566 56.9274C92.6952 56.7887 92.9261 56.9274 93.1571 57.1586Z" fill="white"/>
<path d="M76.0679 58.2222V57.806C77.2688 57.806 77.823 57.4823 78.3311 57.1586C78.4696 57.0661 78.562 57.0199 78.7006 56.9274C80.6405 55.8638 81.8413 56.9274 82.5342 57.806L82.2109 58.0834C81.518 57.2511 80.5481 56.4187 78.8853 57.2973C78.7929 57.3436 78.6544 57.4361 78.562 57.4823C78.0078 57.806 77.3611 58.2222 76.0679 58.2222Z" fill="#230706"/>
<path d="M95.605 58.222C95.2355 58.222 94.866 57.8983 94.4965 57.5746C94.2656 57.3897 94.0347 57.2047 93.8499 57.1122C93.1571 56.7423 92.3257 57.1122 91.6791 58.0833L91.3096 57.8521C92.0948 56.696 93.1109 56.2798 94.0346 56.7423C94.2656 56.881 94.4965 57.066 94.7737 57.2509C95.0508 57.4822 95.4203 57.7596 95.605 57.7596V58.222Z" fill="#230706"/>
<path d="M88.2087 49.228C90.7565 48.5633 93.2674 47.6771 95.6676 46.4954C95.2614 46.68 97.92 50.9267 98.1784 51.296C99.2862 52.7731 100.689 54.1763 102.314 55.1364C104.493 56.4289 105.748 53.7701 106.228 51.8868C107.373 47.2339 106.302 41.8794 105.342 37.2634C104.714 34.1615 101.206 34.2723 100.246 31.2442L64.7245 24.5603C64.7245 24.5603 62.1398 58.2384 62.3244 57.8322C64.0229 54.361 75.5066 51.259 78.0913 50.9636C80.6761 50.7051 84.8855 50.1143 88.2087 49.228Z" fill="#201212"/>
<path d="M56.0472 58.8663C55.6411 61.8944 57.7458 64.6639 60.7367 65.0702C63.7646 65.4764 66.5339 63.3715 66.9401 60.3803C67.3463 57.3522 65.2416 54.5827 62.2506 54.1765C59.2228 53.7333 56.4534 55.8382 56.0472 58.8663Z" fill="#FFBD96"/>
<path d="M64.1708 64.9223C63.9862 66.2886 62.7307 67.2118 61.3645 67.0271C59.9983 66.8425 59.0752 65.587 59.2598 64.2206C59.4444 62.8543 60.6999 61.9311 62.0661 62.1158C63.3954 62.3373 64.3554 63.5929 64.1708 64.9223Z" fill="#5C80FF"/>
<path d="M125.282 335.049C125.282 335.307 123.805 341.548 123.731 343.653C123.62 345.721 139.35 347.198 140.569 343.468C136.876 338.52 134.476 340.846 134.365 334.79C134.255 328.771 125.282 335.049 125.282 335.049Z" fill="#FFBD96"/>
<path d="M140.938 341.917C140.199 341.696 139.461 341.474 138.759 341.289C136.691 345.905 129.233 345.684 123.694 343.616C123.657 343.985 123.62 344.244 123.62 344.354L123.583 345.684C123.583 345.979 123.694 346.422 123.841 346.865C128.309 346.865 132.63 346.865 136.987 346.865C139.756 346.865 142.562 346.865 145.369 346.865C145.258 343.837 143.19 342.656 140.938 341.917Z" fill="url(#paint2_linear_90_24779)"/>
<path d="M136.987 346.865C132.63 346.865 128.31 346.865 123.842 346.865C124.1 347.53 124.543 348.158 125.023 348.158L136.322 348.306L142.083 348.38L145.332 348.416C145.406 347.863 145.443 347.346 145.406 346.902C142.563 346.865 139.793 346.865 136.987 346.865Z" fill="#00061E"/>
<path d="M169.001 335.049C169.001 335.307 167.524 341.548 167.45 343.653C167.339 345.721 183.069 347.198 184.288 343.468C180.595 338.52 178.195 340.846 178.084 334.79C178.01 328.771 169.001 335.049 169.001 335.049Z" fill="#FFBD96"/>
<path d="M184.656 341.917C183.918 341.696 183.179 341.474 182.478 341.289C180.41 345.905 172.951 345.684 167.413 343.616C167.376 343.985 167.339 344.244 167.339 344.354L167.302 345.684C167.302 345.979 167.413 346.422 167.56 346.865C172.028 346.865 176.348 346.865 180.705 346.865C183.475 346.865 186.281 346.865 189.087 346.865C189.014 343.837 186.946 342.656 184.656 341.917Z" fill="url(#paint3_linear_90_24779)"/>
<path d="M180.742 346.865C176.385 346.865 172.065 346.865 167.597 346.865C167.856 347.53 168.299 348.158 168.779 348.158L180.078 348.306L185.838 348.38L189.087 348.416C189.161 347.863 189.198 347.346 189.161 346.902C186.318 346.865 183.512 346.865 180.742 346.865Z" fill="#00061E"/>
<path d="M56.7128 97.1235C56.7128 97.1235 64.0978 101.924 68.6026 125.041C73.1444 148.158 78.7939 153.143 83.0402 157.759C87.2866 162.375 119.928 178.18 119.928 178.18L115.386 188.003C115.386 188.003 75.1752 169.945 66.7563 161.562C58.3375 153.217 48.6262 112.818 48.9216 106.282C49.2539 99.7823 51.1002 92.8399 56.7128 97.1235Z" fill="#FFB896"/>
<path d="M109.921 180.949C108.74 184.199 112.284 188.483 117.86 190.514C123.436 192.545 128.938 191.585 130.119 188.372C131.301 185.122 127.756 180.839 122.18 178.808C116.605 176.777 111.103 177.737 109.921 180.949Z" fill="#FFB896"/>
<path d="M71.8882 122.899L52.0964 126.518C52.0964 126.518 41.7943 100.373 53.4995 94.8339C64.9093 95.5355 71.8882 122.899 71.8882 122.899Z" fill="url(#paint4_linear_90_24779)"/>
<path d="M78.0176 201.149H3.87238C2.02613 201.149 0.512207 202.663 0.512207 204.509V268.025C0.512207 269.871 2.02613 271.385 3.87238 271.385H103.828C108.333 271.385 111.989 267.729 111.989 263.224V235.159C111.989 216.363 96.7755 201.149 78.0176 201.149Z" fill="#FFE7C7"/>
<path d="M78.9038 201.149H8.52492C4.83243 201.149 1.73074 203.66 0.807617 207.094H67.014C85.2918 207.094 100.136 221.902 100.136 240.218V269.244C100.136 269.982 99.988 270.684 99.8403 271.348H103.976C108.407 271.348 112.025 267.766 112.025 263.298V234.236C111.989 215.957 97.1817 201.149 78.9038 201.149Z" fill="#B5C0D9"/>
<path d="M458.161 345.536H468.795C469.09 345.536 469.312 345.315 469.312 345.019V233.904H457.644V345.019C457.68 345.315 457.902 345.536 458.161 345.536Z" fill="#858585"/>
<path d="M358.463 345.536H369.098C369.393 345.536 369.615 345.315 369.615 345.019V233.904H357.946V345.019C357.946 345.315 358.168 345.536 358.463 345.536Z" fill="#858585"/>
<path d="M358.943 271.348H468.425C468.979 271.348 469.422 270.905 469.422 270.351V202.146C469.422 201.592 468.979 201.149 468.425 201.149H362.045C359.755 201.149 357.909 202.995 357.909 205.285V270.351C357.946 270.905 358.389 271.348 358.943 271.348Z" fill="#FF9F58"/>
<path d="M459.083 157.168H542.275C543.051 157.168 543.678 157.796 543.678 158.571V221.238H457.68V158.608C457.68 157.796 458.308 157.168 459.083 157.168Z" fill="#FF9F58"/>
<path d="M439.919 157.168H523.111C523.887 157.168 524.514 157.796 524.514 158.571V221.238H438.516V158.608C438.516 157.796 439.144 157.168 439.919 157.168Z" fill="#FF7D3C"/>
<path d="M380.729 263.151H520.859C521.191 263.151 521.486 262.855 521.486 262.523V219.871C521.486 219.539 521.191 219.243 520.859 219.243H382.649C381.209 219.243 380.064 220.388 380.064 221.828V262.56C380.101 262.892 380.396 263.151 380.729 263.151Z" fill="#FF7D3C"/>
<path d="M532.527 345.536H543.161C543.457 345.536 543.678 345.315 543.678 345.019V233.904H532.01V345.019C532.047 345.315 532.269 345.536 532.527 345.536Z" fill="#A7A7A7"/>
<path d="M432.83 345.536H443.464C443.76 345.536 443.981 345.315 443.981 345.019V233.904H432.313V345.019C432.313 345.315 432.535 345.536 432.83 345.536Z" fill="#D4D4D4"/>
<path d="M381.467 332.021L379.436 345.684L365.109 346.385L366.845 332.021H381.467Z" fill="#FF9E7A"/>
<path d="M380.322 343.062C379.694 342.767 374.119 340.699 366.66 341.253C359.164 341.807 349.305 342.582 348.493 343.727C347.681 344.872 347.865 346.681 347.865 346.681C347.865 346.681 378.624 349.155 379.953 348.601C381.245 348.01 380.322 343.062 380.322 343.062Z" fill="#0F2748"/>
<path d="M434.343 195.462L425.445 201.813C425.445 201.813 375.448 209.568 370.833 220.462C367.177 229.029 367.177 324.857 366.438 332.021L382.242 333.793C382.242 333.793 385.344 323.269 386.821 318.542C392.729 299.598 405.468 258.239 396.569 242.175C396.569 242.175 456.868 211.489 456.388 194.613L434.343 195.462Z" fill="#2E4885"/>
<path d="M418.983 333.239L417.727 346.976L405.357 347.382L404.36 334.089L418.983 333.239Z" fill="#FF9E7A"/>
<path d="M418.023 344.391C417.395 344.17 411.93 342.471 404.767 343.431C397.603 344.391 388.151 345.684 387.449 346.829C386.748 347.973 387.006 349.672 387.006 349.672C387.006 349.672 416.694 350.3 417.949 349.709C419.205 349.118 418.023 344.391 418.023 344.391Z" fill="#0F2748"/>
<path d="M497.338 207.759C498.704 215.329 498.925 234.014 488.882 236.599H434.455L419.758 237.153C419.758 237.153 428.99 263.667 426.663 289.628C426.073 296.422 422.417 312.375 421.42 320.868C420.423 329.362 419.537 334.162 419.537 334.162H403.438C403.438 334.162 387.228 241.548 389.628 226.961C392.028 212.375 425.482 212.338 433.162 208.682C440.843 205.026 442.061 194.908 442.061 194.908L496.784 197.567C496.895 201.186 496.931 205.359 497.338 207.759Z" fill="#365DAB"/>
<path d="M393.024 151.407C393.024 151.407 361.121 163.076 350.745 161.858C337.969 160.344 343.065 176.001 352.111 177.109C361.121 178.217 389.553 174.819 401.665 169.022L393.024 151.407Z" fill="#FFBCAE"/>
<path d="M364.37 164.221C366.955 170.24 364.038 177.146 357.835 179.657C351.631 182.168 344.468 179.325 341.883 173.305C339.298 167.286 342.215 160.381 348.419 157.87C354.622 155.359 361.786 158.202 364.37 164.221Z" fill="#FFBCAE"/>
<path d="M383.535 175.706C383.535 175.706 427.144 164.96 431.131 157.353C437.926 144.465 460.708 69.5754 452.696 70.4248C440.436 71.7172 425.962 78.2904 423.193 101.629C422.454 107.759 419.02 117.803 417.838 121.68C413.703 135.381 415.18 129.324 413.075 139.369L377.479 156.614L383.535 175.706Z" fill="url(#paint5_linear_90_24779)"/>
<path d="M377.59 152.847C376.224 153.18 375.375 154.546 375.744 155.875L380.913 175.226C381.283 176.555 382.686 177.367 384.052 177.035C385.418 176.703 386.267 175.336 385.898 174.007L380.729 154.657C380.359 153.327 378.956 152.515 377.59 152.847Z" fill="white"/>
<path d="M460.376 68.6893C460.376 68.6893 492.463 68.4308 497.744 78.1428C502.544 86.9316 500.181 121.533 498.298 136.932C496.451 152.331 496.894 190.625 496.894 190.625L434.344 189.701C434.344 189.701 429.839 101.444 434.159 85.9714C438.442 70.4987 450.664 69.7602 460.376 68.6893Z" fill="url(#paint6_linear_90_24779)"/>
<path d="M434.344 195.462L496.784 197.493L496.895 190.625L434.344 189.554V195.462Z" fill="#10559B"/>
<path d="M439.403 196.718C438.701 196.016 438.369 195.093 438.369 194.133L438.443 190.994C438.48 189.48 439.772 188.261 441.323 188.298L453.102 188.52C454.099 188.557 454.985 188.926 455.687 189.627C456.389 190.329 456.721 191.252 456.721 192.212L456.647 194.502C456.573 196.496 454.875 198.047 452.844 198.01L441.914 197.789C440.991 197.789 440.068 197.382 439.403 196.718ZM441.36 189.517C440.511 189.517 439.772 190.181 439.735 191.031L439.662 194.17C439.625 194.797 439.883 195.425 440.326 195.868C440.769 196.311 441.36 196.57 442.025 196.57L452.955 196.791C454.284 196.828 455.428 195.757 455.465 194.465L455.539 192.175C455.539 191.548 455.318 190.92 454.875 190.477C454.431 190.034 453.841 189.775 453.176 189.775L441.36 189.517Z" fill="#FFD100"/>
<path d="M446.825 193.837L456.019 194.022C456.352 194.022 456.647 193.763 456.647 193.431C456.647 193.099 456.389 192.803 456.019 192.803L446.825 192.619C446.493 192.619 446.197 192.877 446.197 193.209C446.197 193.542 446.456 193.837 446.825 193.837Z" fill="#FFD100"/>
<path d="M449.667 77.6627C449.667 77.6627 450.997 95.6834 457.643 101.592C457.643 101.592 475.736 80.6169 475.663 74.0807C475.7 74.0807 459.526 81.097 449.667 77.6627Z" fill="white"/>
<path d="M451.108 71.4588C451.108 71.4588 454.653 59.4573 452.474 51.1116C450.296 42.7659 474.186 43.2829 474.444 50.1884C474.74 57.7586 474.149 62.8915 475.331 70.2032C475.331 70.2032 471.232 78.2904 462.038 78.6597C452.843 79.029 451.108 71.4588 451.108 71.4588Z" fill="#FFBCAE"/>
<path d="M460.229 78.6228C460.229 78.6228 472.672 77.9581 475.035 68.2831C475.035 68.2831 478.728 75.7794 469.866 86.0084C469.866 86.0084 462.998 78.8075 460.229 78.6228Z" fill="white"/>
<path d="M451.699 69.2063C451.699 69.2063 448.228 73.453 450.406 85.0852C450.406 85.0852 456.831 78.4752 459.785 78.6229C459.785 78.5859 450.628 76.001 451.699 69.2063Z" fill="white"/>
<path d="M469.681 86.5992C469.57 86.5992 469.459 86.5623 469.386 86.4515C463.81 80.3215 459.564 79.1767 459.527 79.1767C457.828 79.1767 452.548 83.4603 450.665 85.1221C450.554 85.2329 450.406 85.2329 450.258 85.1959C450.111 85.159 450.037 85.0113 450 84.9005C449.963 84.6051 448.892 77.4042 449.852 72.6036C449.889 72.382 450.074 72.2712 450.295 72.3082C450.517 72.3451 450.665 72.5667 450.591 72.7513C449.852 76.5548 450.443 82.1309 450.665 84.0881C452.437 82.5741 457.533 78.4012 459.6 78.4382C459.859 78.512 464.068 79.6198 469.644 85.676C471.01 84.2727 476.734 77.6996 474.887 69.1693C474.85 68.9477 474.961 68.7631 475.183 68.6892C475.404 68.6523 475.589 68.7631 475.663 68.9847C477.804 79.029 469.976 86.4515 469.903 86.5253C469.866 86.5623 469.755 86.5992 469.681 86.5992Z" fill="#B5C0D9"/>
<path d="M459.638 64.6642L455.945 64.8119C446.197 65.1812 437.926 57.4263 437.557 47.6036L436.818 28.4381C436.449 18.5784 444.092 10.1958 453.84 9.82651L457.533 9.6788C467.281 9.30952 475.552 17.0643 475.922 26.8871L476.66 46.0526C477.029 55.9123 469.386 64.2949 459.638 64.6642Z" fill="#FFBCAE"/>
<path d="M437.519 47.0866C437.519 47.0866 441.175 49.5977 447.563 49.45C452.4 49.3392 458.086 49.7454 462.665 48.5637C465.102 47.936 466.912 45.7942 467.318 43.2831L468.056 38.9625L471.379 40.8828C471.379 40.8828 472.376 59.4574 467.244 65.7351C462.37 71.7174 448.892 75.3363 442.615 68.357C436.264 61.2299 437.519 47.0866 437.519 47.0866Z" fill="#191919"/>
<path d="M436.966 35.4173C436.966 35.4173 437.668 20.9785 438.221 19.3906C438.812 17.8027 436.597 22.0863 436.597 22.0863C436.597 22.0863 435.674 30.0627 436.966 35.4173Z" fill="#191919"/>
<path d="M465.213 20.1662C465.213 20.1662 467.945 23.2312 468.019 28.8442L468.056 39.3317C471.49 43.3568 474.223 41.2888 474.444 46.6064L474.555 56.7985C474.555 56.7985 476.66 51.3701 478.801 47.345C480.943 43.3198 483.122 36.4513 480.241 30.7644C478.986 28.2903 480.094 26.7393 480.684 24.8191C481.903 20.8678 479.872 18.1721 479.207 14.3685C478.026 8.16465 465.213 20.1662 465.213 20.1662Z" fill="#191919"/>
<path d="M482.383 42.9137C482.494 46.2741 479.909 49.1176 476.586 49.2653C473.263 49.413 471.232 46.7542 471.121 43.3568C471.01 39.9964 472.82 37.1899 476.143 37.0422C479.466 36.8945 482.272 39.5164 482.383 42.9137Z" fill="#FFBCAE"/>
<path d="M465.361 21.6801C465.361 21.6801 459.342 23.7111 454.689 22.0863C450.037 20.4615 442.763 26.0006 437.63 22.751C432.498 19.5014 429.174 16.2517 432.719 8.31226C436.264 0.372795 445.791 -0.624253 449.409 2.18225C458.493 9.23545 461.188 1.00057 466.173 2.1084C472.376 3.51165 469.755 5.06262 475.035 6.42894C481.238 8.01683 479.097 10.7495 479.577 13.1129C479.983 15.1439 485.78 19.8337 480.648 24.8189C474.149 31.2074 465.361 21.6801 465.361 21.6801Z" fill="#191919"/>
<path d="M448.819 202.921C448.819 202.921 467.872 193.948 474.888 184.458C480.833 176.407 473.115 165.624 469.349 166.954C465.583 168.283 447.268 186.378 439.292 191.474C433.901 194.908 448.819 202.921 448.819 202.921Z" fill="#FFBCAE"/>
<path d="M452.363 192.951C454.653 199.081 451.366 205.839 445.015 208.017C438.664 210.196 431.685 206.983 429.433 200.853C427.144 194.724 430.43 187.966 436.781 185.787C443.095 183.608 450.111 186.821 452.363 192.951Z" fill="#FFBCAE"/>
<path d="M483.343 77.5149C488.845 70.2771 495.787 74.4868 500.587 79.5459C506.901 86.2299 506.717 109.457 506.458 121.2C505.794 151.407 506.791 141.252 504.649 159.125C503.763 166.511 480.057 184.088 474.814 186.895L461.631 172.198C461.631 172.198 480.389 153.992 481.054 148.084C482.088 138.852 479.503 111.341 479.54 102.921C479.54 95.2402 479.171 83.0171 483.343 77.5149Z" fill="url(#paint7_linear_90_24779)"/>
<path d="M457.164 170.536C455.982 171.496 455.872 173.158 456.906 174.266L472.156 190.477C473.189 191.585 475.036 191.732 476.217 190.772C477.399 189.812 477.51 188.15 476.476 187.043L461.226 170.831C460.192 169.723 458.346 169.576 457.164 170.536Z" fill="white"/>
<path d="M539.986 201.149H465.139C447.009 201.149 432.313 215.846 432.313 233.978V261.636C432.313 266.991 436.67 271.348 442.024 271.348H539.986C542.091 271.348 543.789 269.65 543.789 267.545V204.952C543.789 202.847 542.091 201.149 539.986 201.149Z" fill="#FF9F58"/>
<path d="M465.397 201.149H535.739C539.432 201.149 542.534 203.66 543.457 207.094H477.25C458.972 207.094 444.129 221.902 444.129 240.218V269.244C444.129 269.982 444.239 270.684 444.424 271.348H440.288C435.857 271.348 432.239 267.766 432.239 263.298V234.236C432.313 215.957 447.119 201.149 465.397 201.149Z" fill="#D4D4D4"/>
<path d="M277.265 202.589V308.83C277.265 311.747 274.902 324.044 271.985 324.044C269.068 324.044 266.705 311.747 266.705 308.83V202.589C266.705 199.672 269.068 197.308 271.985 197.308C274.902 197.345 277.265 199.709 277.265 202.589Z" fill="#655E6F"/>
<path d="M349.933 205.285H194.073C191.156 205.285 188.792 202.921 188.792 200.004C188.792 197.087 191.156 194.723 194.073 194.723H349.933C352.85 194.723 355.213 197.087 355.213 200.004C355.213 202.921 352.85 205.285 349.933 205.285Z" fill="#655E6F"/>
<path d="M305.254 345.536H238.752C235.835 345.536 233.472 343.173 233.472 340.255C233.472 337.338 235.835 334.975 238.752 334.975H305.254C308.171 334.975 310.534 337.338 310.534 340.255C310.534 343.173 308.171 345.536 305.254 345.536Z" fill="#655E6F"/>
<path d="M246.986 337.338L271.985 302.405L296.983 337.338H246.986Z" fill="#655E6F"/>
<path d="M457.29 52.9421C457.29 53.4086 454.491 54.575 451.108 54.6916C447.726 54.8083 444.926 53.6419 444.926 53.0587C444.926 52.7088 447.726 52.8254 451.108 52.7088C454.491 52.5922 457.29 52.3589 457.29 52.9421Z" fill="white"/>
<path d="M450.974 45.5311V44.9479C450.74 44.9479 450.507 44.9479 450.274 44.9479C448.874 44.9479 447.241 44.9479 446.308 44.1315C445.842 43.6649 445.842 42.8484 446.308 41.5654L446.425 41.2155C447.125 39.2326 448.758 35.1502 448.058 32.5842C447.708 31.4178 446.775 30.4847 445.958 30.2514C443.509 29.5516 440.943 30.368 438.61 31.6511L438.843 32.1176C441.176 30.9512 444.675 30.368 446.541 31.5344C446.891 31.7677 447.358 32.2343 447.475 32.8175C448.058 35.2669 446.541 39.2326 445.842 41.0988L445.725 41.4487C445.142 42.9651 445.258 44.0148 445.842 44.598C446.891 45.5311 448.641 45.5311 450.157 45.5311C450.507 45.4145 450.74 45.4145 450.974 45.5311Z" fill="#191919"/>
<path d="M457.272 35.15C457.272 36.0831 457.856 36.7829 458.556 36.7829C459.255 36.7829 459.839 35.9664 459.839 35.0333C459.839 34.1002 459.255 33.4004 458.556 33.4004C457.739 33.517 457.272 34.2169 457.272 35.15Z" fill="#191919"/>
<path d="M440.709 35.7332C440.709 36.6663 441.293 37.3662 441.992 37.3662C442.692 37.3662 443.275 36.5497 443.275 35.6166C443.275 34.6835 442.692 33.9836 441.992 33.9836C441.293 33.9836 440.709 34.8001 440.709 35.7332Z" fill="#191919"/>
<path d="M466.603 31.1841L466.836 30.6009C464.27 29.6678 461.937 29.2013 459.138 29.3179C456.572 29.4345 454.706 29.9011 453.073 31.0675L453.423 31.534C454.822 30.4843 456.572 30.0177 459.138 29.9011C461.937 29.9011 464.153 30.251 466.603 31.1841Z" fill="#191919"/>
<path d="M458.904 33.984C458.671 34.3339 458.554 34.6838 458.787 34.8005C459.021 34.9171 459.37 34.8004 459.604 34.4505C459.837 34.1006 459.954 33.7507 459.72 33.6341C459.487 33.5174 459.137 33.6341 458.904 33.984Z" fill="white"/>
<path d="M442.341 34.5669C442.108 34.9168 441.992 35.2667 442.225 35.3834C442.458 35.5 442.808 35.3833 443.041 35.0334C443.275 34.6835 443.391 34.3336 443.158 34.217C443.041 34.1003 442.691 34.2169 442.341 34.5669Z" fill="white"/>
<path d="M462.406 35.1502L462.755 34.6836C459.606 31.8843 457.273 33.4006 456.34 34.1004L456.69 34.567C457.623 33.7505 459.606 32.7008 462.406 35.1502Z" fill="#191919"/>
<path d="M444.095 35.6166L444.561 35.2667C443.628 33.7504 442.578 33.5171 441.878 33.6338C440.712 33.7504 439.895 34.6835 439.779 35.0334L440.362 35.2667C440.479 35.0334 441.179 34.3336 441.995 34.217C442.695 34.1003 443.395 34.5669 444.095 35.6166Z" fill="#191919"/>
<path d="M611.841 329.546C613.835 335.159 610.918 341.326 605.306 343.357C599.693 345.352 593.527 342.434 591.496 336.821C589.502 331.208 592.419 325.041 598.032 323.01C603.681 321.016 609.847 323.933 611.841 329.546Z" fill="#0F2748"/>
<path d="M640.938 316.622L596.48 332.501C594.745 333.129 592.862 332.205 592.234 330.507L546.115 201.481C545.487 199.746 546.41 197.862 548.109 197.235L592.566 181.356C595.779 180.211 599.287 181.873 600.431 185.085L644.631 308.793C645.812 311.932 644.151 315.477 640.938 316.622Z" fill="#579D45"/>
<path d="M560.294 200.669L556.306 202.367C556.011 202.478 555.678 202.367 555.568 202.072L517.646 113.852C517.535 113.556 517.646 113.224 517.941 113.113L521.929 111.414C522.224 111.304 522.557 111.414 522.667 111.71L560.589 199.93C560.737 200.189 560.589 200.521 560.294 200.669Z" fill="#579D45"/>
<path d="M566.087 190.752L563.932 191.523L612.307 326.818L614.463 326.047L566.087 190.752Z" fill="white"/>
<path d="M597.552 269.834L589.761 272.604C589.428 272.715 589.059 272.567 588.948 272.235L580.492 248.601C580.382 248.268 580.529 247.899 580.862 247.788L588.653 245.019C588.985 244.908 589.354 245.056 589.465 245.388L597.921 269.022C598.032 269.354 597.884 269.723 597.552 269.834Z" fill="white"/>
<path d="M186.023 152.921C186.023 152.921 181.962 175.816 170.626 175.816C159.29 175.816 159.29 175.816 159.29 175.816C159.29 175.816 153.603 161.008 149.948 152.921C162.945 152.921 186.023 152.921 186.023 152.921Z" fill="#B3958B"/>
<path d="M158.773 173.12C159.659 173.12 160.397 172.382 160.397 171.496C160.397 170.609 159.659 169.871 158.773 169.871C153.825 169.871 150.723 168.098 149.541 164.664C148.803 162.522 148.914 160.565 149.837 159.273C150.501 158.349 151.572 157.869 152.902 157.869C153.788 157.869 154.526 157.131 154.526 156.245C154.526 155.358 153.788 154.62 152.902 154.62C150.501 154.62 148.471 155.617 147.178 157.389C145.664 159.531 145.406 162.559 146.477 165.698C148.101 170.499 152.458 173.12 158.773 173.12Z" fill="#B3958B"/>
<path d="M220.511 188.482C220.806 188.556 223.576 190.403 226.013 192.028C228.413 193.615 231.182 194.465 234.062 194.465H263.861C265.485 194.465 267.073 193.874 268.292 192.766L273.092 188.482H220.511V188.482Z" fill="#B3958B"/>
<defs>
<linearGradient id="paint0_linear_90_24779" x1="105.281" y1="62.9334" x2="88.9588" y2="129.517" gradientUnits="userSpaceOnUse">
<stop stop-color="#579D45"/>
<stop offset="1" stop-color="#579D45"/>
</linearGradient>
<linearGradient id="paint1_linear_90_24779" x1="74.3347" y1="90.5712" x2="72.2736" y2="238.827" gradientUnits="userSpaceOnUse">
<stop stop-color="#67B353"/>
<stop offset="1" stop-color="#4A9836"/>
</linearGradient>
<linearGradient id="paint2_linear_90_24779" x1="123.595" y1="344.086" x2="145.396" y2="344.086" gradientUnits="userSpaceOnUse">
<stop stop-color="#E50000"/>
<stop offset="1" stop-color="#BB0000"/>
</linearGradient>
<linearGradient id="paint3_linear_90_24779" x1="167.335" y1="344.086" x2="189.136" y2="344.086" gradientUnits="userSpaceOnUse">
<stop stop-color="#E50000"/>
<stop offset="1" stop-color="#BB0000"/>
</linearGradient>
<linearGradient id="paint4_linear_90_24779" x1="78.7466" y1="67.1278" x2="52.5758" y2="130.492" gradientUnits="userSpaceOnUse">
<stop stop-color="#579D45"/>
<stop offset="1" stop-color="#579D45"/>
</linearGradient>
<linearGradient id="paint5_linear_90_24779" x1="348.868" y1="84.9122" x2="431.31" y2="130.171" gradientUnits="userSpaceOnUse">
<stop stop-color="#FFE459"/>
<stop offset="0.8109" stop-color="#E2CA4E"/>
<stop offset="1" stop-color="#F9A931"/>
</linearGradient>
<linearGradient id="paint6_linear_90_24779" x1="404.92" y1="99.612" x2="487.363" y2="144.871" gradientUnits="userSpaceOnUse">
<stop stop-color="#E4BF40"/>
<stop offset="1" stop-color="#F3AA3D"/>
</linearGradient>
<linearGradient id="paint7_linear_90_24779" x1="457.175" y1="183.32" x2="509.988" y2="90.635" gradientUnits="userSpaceOnUse">
<stop stop-color="#F9D149"/>
<stop offset="1" stop-color="#F4A226"/>
</linearGradient>
</defs>
</svg>
